PathFileType	4	(X/Y/Z)	s01c0401.trc
DataRate	CameraRate	NumFrames	NumMarkers	Units	OrigDataRate	OrigDataStartFrame	OrigNumFrames
200	200	6	48	mm	200	1000	2000
Frame#	Time	racr			lacr			c7			jug			rlel			rdr			llel			ldr			s2			lic			ric			lasi			rasi			rpsi			lpsi			rgt			lgt			rth1			rth2			rth3			rth4			rlfc			rsh1			rsh2			rsh3			rsh4			rlmal			rmmal			rcal			rtoe			rmt5			lth1			lth2			lth4			lth3			llfc			lsh1			lsh2			lsh3			lsh4			llmal			lmmal			lcal			ltoe			lmt5			SBIKE			LBIKE			RBIKE			
		X1	Y1	Z1	X2	Y2	Z2	X3	Y3	Z3	X4	Y4	Z4	X5	Y5	Z5	X6	Y6	Z6	X7	Y7	Z7	X8	Y8	Z8	X9	Y9	Z9	X10	Y10	Z10	X11	Y11	Z11	X12	Y12	Z12	X13	Y13	Z13	X14	Y14	Z14	X15	Y15	Z15	X16	Y16	Z16	X17	Y17	Z17	X18	Y18	Z18	X19	Y19	Z19	X20	Y20	Z20	X21	Y21	Z21	X22	Y22	Z22	X23	Y23	Z23	X24	Y24	Z24	X25	Y25	Z25	X26	Y26	Z26	X27	Y27	Z27	X28	Y28	Z28	X29	Y29	Z29	X30	Y30	Z30	X31	Y31	Z31	X32	Y32	Z32	X33	Y33	Z33	X34	Y34	Z34	X35	Y35	Z35	X36	Y36	Z36	X37	Y37	Z37	X38	Y38	Z38	X39	Y39	Z39	X40	Y40	Z40	X41	Y41	Z41	X42	Y42	Z42	X43	Y43	Z43	X44	Y44	Z44	X45	Y45	Z45	X46	Y46	Z46	X47	Y47	Z47	X48	Y48	Z48	
1000	5.0000	733.211670	1280.969604	-80.167297	749.188721	1224.272095	-458.535980	755.822693	1361.644653	-271.249207	728.554077	1198.356323	-256.020874	570.273438	1071.605469	58.065571	704.612732	889.493164	-27.515266	544.873474	1035.493652	-572.654785	690.559082	892.015747	-446.716827	207.898163	1221.485596	-244.825974	363.850128	1210.828979	-431.016754	372.976288	1201.263062	-99.675087	362.872803	1157.276123	-405.808014	388.502899	1154.869995	-130.784927	245.487335	1257.543457	-195.086411	240.109451	1261.538940	-299.491211	312.105164	1092.863647	-65.115921	292.319366	1078.158569	-443.014740	397.059479	993.395935	-58.306057	453.388153	931.950928	-64.142532	508.737518	861.069031	-76.574150	492.947968	965.232178	-85.964371	533.979797	756.818420	-99.514824	427.978180	705.668091	-63.312824	355.823578	661.522583	-66.279068	275.571747	623.295837	-74.433380	378.621887	621.521790	-104.595139	162.020889	579.190857	-89.333412	192.940674	551.473694	-167.780991	122.916183	603.036133	-144.872528	205.402420	343.695251	-137.038376	140.927658	428.416077	-66.105217	331.476746	951.095154	-450.943695	386.545746	884.289001	-441.067841	429.516754	916.852905	-438.282440	432.964478	814.207703	-423.162048	476.041260	712.895569	-405.940857	410.487457	616.810303	-442.241364	380.444366	534.977966	-437.255554	347.480621	456.789459	-426.734497	432.358521	518.046143	-408.650757	295.522949	341.593536	-414.897217	330.010895	348.063232	-334.454865	241.388916	326.535675	-376.436584	490.216797	203.871552	-369.066254	387.345123	219.827789	-440.479980	-270.106873	877.888611	-267.029633	-11.970074	84.318008	-453.615356	-20.215078	81.104889	-53.761929	
1001	5.0050	732.649170	1281.741089	-77.919510	750.775452	1223.925781	-456.059052	756.255371	1361.813232	-268.730927	729.183655	1198.829224	-253.519928	569.221252	1070.893433	58.144749	704.438477	889.556458	-28.076815	546.218018	1036.719482	-572.336243	690.830139	891.947632	-446.941254	208.272537	1221.138916	-246.311203	364.327026	1209.403442	-431.685699	372.636597	1202.314453	-99.474075	363.789459	1155.887939	-406.394836	388.469452	1155.581665	-131.108383	245.527054	1257.446777	-196.657593	240.888000	1260.695435	-301.123627	312.753754	1094.255249	-65.017441	291.454468	1076.200439	-442.999695	400.177460	996.461792	-57.915035	457.993683	936.358643	-63.760201	514.880859	866.820740	-76.370689	496.495728	970.405823	-86.478333	541.084656	762.488831	-99.595581	435.008606	712.349609	-63.652370	362.328552	668.979614	-66.515862	281.523407	631.764709	-74.649483	384.575348	628.973938	-104.992065	167.236069	588.471985	-89.731163	198.417801	560.878479	-168.358780	127.308159	611.692932	-144.980576	213.388138	353.434570	-137.004120	147.874237	437.467133	-66.183212	327.643707	948.587463	-450.856628	380.823608	880.287781	-440.880554	425.047333	911.827881	-438.034363	425.199677	808.919312	-422.883575	467.320099	706.606384	-405.861053	402.984924	610.157166	-442.440460	373.571106	527.912659	-437.336273	341.222534	449.649445	-426.954559	425.401459	511.680115	-408.314880	289.787537	334.332306	-414.652008	326.163635	342.148010	-334.929504	236.399139	320.312531	-376.302490	483.502563	193.899811	-368.768311	380.814087	211.609238	-440.588898	-270.164551	877.884155	-267.009247	-11.970913	84.319153	-453.615173	-20.229513	81.118835	-53.765026	
1002	5.0100	732.079956	1282.682983	-75.672958	752.430115	1223.601318	-453.464417	756.708069	1361.980469	-266.082306	729.901550	1199.201660	-250.939087	568.213135	1070.210083	58.206276	704.268188	889.734924	-28.726099	547.584473	1038.046143	-572.183167	691.399597	891.584167	-447.206512	208.767487	1220.736694	-247.905746	364.989105	1208.130615	-432.274872	372.056274	1203.313965	-100.251076	364.786621	1154.535889	-406.985870	388.427948	1156.287354	-131.389999	245.520706	1257.394165	-198.247360	241.751740	1259.907104	-302.830872	313.323669	1095.951538	-64.959618	290.669983	1074.546631	-443.073181	403.048187	999.571167	-57.277534	462.311157	940.907898	-63.319828	521.042236	872.720459	-75.727661	499.429443	975.978333	-86.410500	547.934509	768.607056	-99.204102	442.068726	719.046265	-64.001266	369.038300	676.250916	-66.839912	287.830841	639.952026	-74.962303	390.685944	636.208191	-105.591415	172.897827	597.073181	-90.080864	204.443176	569.920410	-169.265945	132.095505	619.782166	-145.392944	221.776199	362.803131	-137.043564	155.270309	445.963776	-66.319664	323.877014	946.330200	-450.950592	375.093903	876.620117	-440.801758	420.450653	906.935852	-438.480255	417.409332	804.170227	-422.778625	458.349152	700.570068	-405.894348	395.084717	603.922485	-442.733124	366.269836	521.366394	-437.523254	334.532593	442.985504	-427.205841	417.950195	505.631317	-408.173187	283.697205	327.417175	-414.379852	322.111847	336.752197	-335.410400	230.954666	314.578979	-376.236115	476.197266	184.374908	-368.597504	373.826752	203.889389	-440.769989	-270.192444	877.867249	-267.083588	-11.973899	84.316307	-453.618439	-20.224455	81.104080	-53.763195	
1003	5.0150	731.597351	1283.553101	-72.977859	754.047791	1223.394653	-450.854309	757.181946	1362.121704	-263.387299	730.606873	1199.466553	-248.418777	567.143250	1069.573120	58.276955	704.072449	889.959778	-29.234936	549.085144	1039.386597	-572.092407	691.473816	891.908386	-447.576019	209.227478	1220.551514	-249.463699	365.881744	1206.937988	-432.739685	371.368256	1204.283691	-100.412415	365.826691	1153.243164	-407.495941	388.373901	1156.994263	-131.654785	245.631622	1257.444946	-199.797470	242.666046	1259.175537	-304.579681	313.875580	1097.695923	-64.963982	289.921143	1072.984985	-443.049469	406.047119	1002.869568	-56.641521	466.146484	945.530518	-62.745640	526.300781	878.635925	-75.116295	502.302063	981.262634	-86.544067	555.107422	775.023560	-99.452652	449.171600	725.649719	-64.304092	375.878784	683.313354	-67.181877	294.309784	647.584167	-75.404510	397.147156	643.292725	-106.117638	179.010208	604.987061	-90.453903	210.769684	578.301514	-170.010178	137.427155	627.245972	-145.794250	230.710480	371.532715	-137.086609	163.161804	454.026672	-66.573097	320.219025	944.352783	-451.192169	369.472961	873.337524	-440.899750	415.438751	902.379272	-438.742371	409.830811	799.653320	-423.123596	449.059143	694.867249	-405.910736	386.835724	598.208435	-443.104065	358.581787	515.306396	-437.770477	327.390900	436.884827	-427.536652	410.187042	500.057434	-408.077484	277.233978	320.979919	-414.176239	317.874664	331.876068	-335.898132	225.091187	309.325043	-376.247864	468.395935	175.310379	-368.643555	366.369598	196.639877	-440.954987	-270.288055	877.859680	-267.087006	-11.984871	84.312431	-453.622345	-20.226112	81.096565	-53.766315	
1004	5.0200	731.101440	1284.176147	-70.399216	755.685547	1223.222900	-448.159729	757.652222	1362.202148	-260.604492	731.166016	1199.874146	-245.616058	566.010376	1068.964844	58.450378	703.927429	890.163574	-29.718107	550.556519	1040.793457	-572.033630	691.817749	891.931519	-447.875214	209.785202	1220.384644	-251.037308	367.049561	1205.789551	-433.051361	370.652832	1205.257935	-100.514557	366.904388	1151.987427	-407.843750	388.320618	1157.685059	-131.866135	245.868683	1257.556763	-201.420715	243.642273	1258.512817	-306.355347	314.065857	1099.641113	-66.006226	289.139313	1071.696411	-443.121735	408.434204	1006.145630	-56.004169	469.397888	950.217224	-61.856407	530.675903	884.279541	-74.297081	504.952332	986.669495	-86.574753	561.892273	781.611816	-99.160683	456.218719	732.082214	-64.540726	382.737701	690.126587	-67.592400	301.060760	654.779358	-75.836670	403.787872	650.185669	-106.730858	185.465714	612.426758	-90.865738	217.589905	586.192871	-170.977661	142.866913	634.075989	-146.456696	240.033493	379.807922	-137.171066	171.435577	461.482910	-66.807182	316.691711	942.666321	-451.503876	363.951569	870.426392	-441.023438	410.724976	898.167114	-439.021088	402.345245	795.660339	-422.964020	439.503448	689.596802	-406.160492	378.310425	593.094421	-443.549835	350.392517	510.066467	-438.367767	319.785767	431.455048	-427.972961	402.081116	495.060272	-408.151337	270.425568	315.087799	-414.066528	313.471222	327.519958	-336.393280	218.835617	304.630554	-376.332184	460.066498	166.987030	-368.718964	358.458984	189.894989	-441.182648	-270.346863	877.846802	-267.110321	-11.996653	84.302925	-453.630005	-20.242704	81.111290	-53.785534	
1005	5.0250	730.587219	1284.728760	-67.745598	757.350586	1223.084717	-445.429840	758.129883	1362.322266	-257.717377	731.808655	1199.954346	-242.989197	564.840637	1068.441772	58.617767	703.773438	890.374207	-30.108931	552.119812	1042.278442	-572.097900	692.108276	891.973572	-448.202637	210.369095	1220.136597	-252.678741	368.523102	1204.702759	-433.196747	369.751312	1206.107300	-100.662239	368.039673	1150.854492	-408.223907	388.269318	1158.356079	-132.007492	246.032364	1257.665283	-203.037415	244.666367	1257.882446	-308.111877	314.431793	1101.435425	-66.070282	288.621796	1070.468750	-443.168549	410.601501	1009.514282	-55.446156	472.648193	955.120972	-61.290764	535.534119	890.666565	-73.727989	507.499908	992.165588	-86.668839	568.525818	788.460449	-98.699654	463.217804	738.553833	-64.690971	389.620605	696.769836	-67.993011	307.872803	661.644287	-76.356812	410.589508	657.053955	-107.319862	192.327255	619.284058	-91.355637	224.787567	593.323853	-171.514008	149.050003	640.467285	-146.525574	249.769455	387.610321	-137.164902	180.132965	468.314575	-66.982628	313.321747	941.273071	-451.843994	358.614624	867.753784	-441.236572	406.084076	894.312317	-439.368561	394.538269	792.354492	-423.135773	429.709534	684.807922	-406.679138	369.593201	588.592346	-444.095886	341.989014	505.679321	-438.976837	311.748138	426.718658	-428.487518	393.661957	490.757111	-408.634552	263.341827	309.805969	-414.027771	308.920624	323.684113	-336.896484	212.223969	300.485657	-376.450989	451.397827	159.176529	-368.775574	350.122437	183.664658	-441.425629	-270.358856	877.852966	-267.083862	-12.006623	84.297615	-453.636841	-20.264896	81.116837	-53.781124	
